<mxfile host="app.diagrams.net" modified="2023-03-20T22:33:28.693Z" agent="5.0 (Linux; Android 13; SM-N985F) AppleWebKit/537.36 (KHTML, like Gecko) Chrome/111.0.0.0 Safari/537.36" etag="774eiflKOg6mshm45Nfo" version="21.0.8" type="github">
  <diagram id="C5RBs43oDa-KdzZeNtuy" name="Page-1">
    <mxGraphModel dx="1434" dy="719" grid="1" gridSize="10" guides="1" tooltips="1" connect="1" arrows="1" fold="1" page="1" pageScale="1" pageWidth="827" pageHeight="1169" math="0" shadow="0">
      <root>
        <mxCell id="WIyWlLk6GJQsqaUBKTNV-0" />
        <mxCell id="WIyWlLk6GJQsqaUBKTNV-1" parent="WIyWlLk6GJQsqaUBKTNV-0" />
        <mxCell id="WIyWlLk6GJQsqaUBKTNV-2" value="" style="rounded=0;html=1;jettySize=auto;orthogonalLoop=1;fontSize=11;endArrow=block;endFill=0;endSize=8;strokeWidth=1;shadow=0;labelBackgroundColor=none;edgeStyle=orthogonalEdgeStyle;" parent="WIyWlLk6GJQsqaUBKTNV-1" source="WIyWlLk6GJQsqaUBKTNV-3" target="WIyWlLk6GJQsqaUBKTNV-6" edge="1">
          <mxGeometry relative="1" as="geometry" />
        </mxCell>
        <mxCell id="WIyWlLk6GJQsqaUBKTNV-3" value="Crear Recibo (PH)" style="rounded=1;whiteSpace=wrap;html=1;fontSize=12;glass=0;strokeWidth=1;shadow=0;fillColor=#dae8fc;strokeColor=#6c8ebf;" parent="WIyWlLk6GJQsqaUBKTNV-1" vertex="1">
          <mxGeometry x="20" y="120" width="120" height="40" as="geometry" />
        </mxCell>
        <mxCell id="WIyWlLk6GJQsqaUBKTNV-4" value="D2D" style="rounded=0;html=1;jettySize=auto;orthogonalLoop=1;fontSize=11;endArrow=block;endFill=0;endSize=8;strokeWidth=1;shadow=0;labelBackgroundColor=none;edgeStyle=orthogonalEdgeStyle;entryX=0;entryY=0.5;entryDx=0;entryDy=0;exitX=0.5;exitY=1;exitDx=0;exitDy=0;" parent="WIyWlLk6GJQsqaUBKTNV-1" source="WIyWlLk6GJQsqaUBKTNV-6" target="WIyWlLk6GJQsqaUBKTNV-11" edge="1">
          <mxGeometry y="20" relative="1" as="geometry">
            <mxPoint as="offset" />
            <mxPoint x="255" y="270" as="targetPoint" />
          </mxGeometry>
        </mxCell>
        <mxCell id="WIyWlLk6GJQsqaUBKTNV-5" value="WebApp" style="edgeStyle=orthogonalEdgeStyle;rounded=0;html=1;jettySize=auto;orthogonalLoop=1;fontSize=11;endArrow=block;endFill=0;endSize=8;strokeWidth=1;shadow=0;labelBackgroundColor=none;exitX=0.5;exitY=0;exitDx=0;exitDy=0;" parent="WIyWlLk6GJQsqaUBKTNV-1" source="WIyWlLk6GJQsqaUBKTNV-6" target="WIyWlLk6GJQsqaUBKTNV-7" edge="1">
          <mxGeometry y="10" relative="1" as="geometry">
            <mxPoint as="offset" />
          </mxGeometry>
        </mxCell>
        <mxCell id="WIyWlLk6GJQsqaUBKTNV-6" value="Sistema" style="rhombus;whiteSpace=wrap;html=1;shadow=0;fontFamily=Helvetica;fontSize=12;align=center;strokeWidth=1;spacing=6;spacingTop=-4;" parent="WIyWlLk6GJQsqaUBKTNV-1" vertex="1">
          <mxGeometry x="195" y="100" width="100" height="80" as="geometry" />
        </mxCell>
        <mxCell id="XBX4nZGUdL0fPtYbBpFq-3" value="" style="edgeStyle=orthogonalEdgeStyle;rounded=0;orthogonalLoop=1;jettySize=auto;html=1;" edge="1" parent="WIyWlLk6GJQsqaUBKTNV-1" source="WIyWlLk6GJQsqaUBKTNV-7" target="XBX4nZGUdL0fPtYbBpFq-2">
          <mxGeometry relative="1" as="geometry" />
        </mxCell>
        <mxCell id="WIyWlLk6GJQsqaUBKTNV-7" value="Registrar Venta" style="rounded=1;whiteSpace=wrap;html=1;fontSize=12;glass=0;strokeWidth=1;shadow=0;fillColor=#ffe6cc;strokeColor=#d79b00;" parent="WIyWlLk6GJQsqaUBKTNV-1" vertex="1">
          <mxGeometry x="367" y="60" width="120" height="40" as="geometry" />
        </mxCell>
        <mxCell id="XBX4nZGUdL0fPtYbBpFq-5" value="" style="edgeStyle=orthogonalEdgeStyle;rounded=0;orthogonalLoop=1;jettySize=auto;html=1;" edge="1" parent="WIyWlLk6GJQsqaUBKTNV-1" source="WIyWlLk6GJQsqaUBKTNV-11" target="XBX4nZGUdL0fPtYbBpFq-4">
          <mxGeometry relative="1" as="geometry" />
        </mxCell>
        <mxCell id="WIyWlLk6GJQsqaUBKTNV-11" value="Registrar Venta" style="rounded=1;whiteSpace=wrap;html=1;fontSize=12;glass=0;strokeWidth=1;shadow=0;fillColor=#e1d5e7;strokeColor=#9673a6;" parent="WIyWlLk6GJQsqaUBKTNV-1" vertex="1">
          <mxGeometry x="368" y="180" width="120" height="40" as="geometry" />
        </mxCell>
        <mxCell id="XBX4nZGUdL0fPtYbBpFq-1" style="edgeStyle=orthogonalEdgeStyle;rounded=0;orthogonalLoop=1;jettySize=auto;html=1;" edge="1" parent="WIyWlLk6GJQsqaUBKTNV-1" source="XBX4nZGUdL0fPtYbBpFq-0" target="WIyWlLk6GJQsqaUBKTNV-3">
          <mxGeometry relative="1" as="geometry" />
        </mxCell>
        <mxCell id="XBX4nZGUdL0fPtYbBpFq-0" value="Inicio" style="ellipse;whiteSpace=wrap;html=1;aspect=fixed;" vertex="1" parent="WIyWlLk6GJQsqaUBKTNV-1">
          <mxGeometry x="60" y="30" width="40" height="40" as="geometry" />
        </mxCell>
        <mxCell id="XBX4nZGUdL0fPtYbBpFq-30" value="" style="edgeStyle=orthogonalEdgeStyle;rounded=0;orthogonalLoop=1;jettySize=auto;html=1;exitX=1;exitY=0.5;exitDx=0;exitDy=0;" edge="1" parent="WIyWlLk6GJQsqaUBKTNV-1" source="XBX4nZGUdL0fPtYbBpFq-2" target="XBX4nZGUdL0fPtYbBpFq-29">
          <mxGeometry relative="1" as="geometry">
            <mxPoint x="752" y="80" as="sourcePoint" />
          </mxGeometry>
        </mxCell>
        <mxCell id="XBX4nZGUdL0fPtYbBpFq-2" value="Activaciones/QA" style="whiteSpace=wrap;html=1;fillColor=#ffe6cc;strokeColor=#d79b00;rounded=1;glass=0;strokeWidth=1;shadow=0;" vertex="1" parent="WIyWlLk6GJQsqaUBKTNV-1">
          <mxGeometry x="567" y="60" width="120" height="40" as="geometry" />
        </mxCell>
        <mxCell id="XBX4nZGUdL0fPtYbBpFq-31" style="edgeStyle=orthogonalEdgeStyle;rounded=0;orthogonalLoop=1;jettySize=auto;html=1;exitX=1;exitY=0.5;exitDx=0;exitDy=0;" edge="1" parent="WIyWlLk6GJQsqaUBKTNV-1" source="XBX4nZGUdL0fPtYbBpFq-4" target="XBX4nZGUdL0fPtYbBpFq-29">
          <mxGeometry relative="1" as="geometry">
            <mxPoint x="753" y="200" as="sourcePoint" />
          </mxGeometry>
        </mxCell>
        <mxCell id="XBX4nZGUdL0fPtYbBpFq-4" value="Activaciones/QA" style="whiteSpace=wrap;html=1;fillColor=#e1d5e7;strokeColor=#9673a6;rounded=1;glass=0;strokeWidth=1;shadow=0;" vertex="1" parent="WIyWlLk6GJQsqaUBKTNV-1">
          <mxGeometry x="568" y="180" width="120" height="40" as="geometry" />
        </mxCell>
        <mxCell id="XBX4nZGUdL0fPtYbBpFq-16" value="" style="edgeStyle=orthogonalEdgeStyle;rounded=0;orthogonalLoop=1;jettySize=auto;html=1;" edge="1" parent="WIyWlLk6GJQsqaUBKTNV-1" source="XBX4nZGUdL0fPtYbBpFq-13" target="XBX4nZGUdL0fPtYbBpFq-15">
          <mxGeometry relative="1" as="geometry" />
        </mxCell>
        <mxCell id="XBX4nZGUdL0fPtYbBpFq-13" value="Inicio" style="ellipse;whiteSpace=wrap;html=1;aspect=fixed;fillColor=#dae8fc;strokeColor=#6c8ebf;" vertex="1" parent="WIyWlLk6GJQsqaUBKTNV-1">
          <mxGeometry x="37" y="390" width="60" height="60" as="geometry" />
        </mxCell>
        <mxCell id="XBX4nZGUdL0fPtYbBpFq-18" value="Ingresar Venta" style="edgeStyle=orthogonalEdgeStyle;rounded=0;orthogonalLoop=1;jettySize=auto;html=1;" edge="1" parent="WIyWlLk6GJQsqaUBKTNV-1" source="XBX4nZGUdL0fPtYbBpFq-15" target="XBX4nZGUdL0fPtYbBpFq-17">
          <mxGeometry relative="1" as="geometry" />
        </mxCell>
        <mxCell id="XBX4nZGUdL0fPtYbBpFq-15" value="Pagado" style="ellipse;whiteSpace=wrap;html=1;aspect=fixed;" vertex="1" parent="WIyWlLk6GJQsqaUBKTNV-1">
          <mxGeometry x="148" y="390" width="60" height="60" as="geometry" />
        </mxCell>
        <mxCell id="XBX4nZGUdL0fPtYbBpFq-20" value="Validar" style="edgeStyle=orthogonalEdgeStyle;rounded=0;orthogonalLoop=1;jettySize=auto;html=1;" edge="1" parent="WIyWlLk6GJQsqaUBKTNV-1" source="XBX4nZGUdL0fPtYbBpFq-17" target="XBX4nZGUdL0fPtYbBpFq-19">
          <mxGeometry relative="1" as="geometry">
            <mxPoint x="570" y="420" as="targetPoint" />
          </mxGeometry>
        </mxCell>
        <mxCell id="XBX4nZGUdL0fPtYbBpFq-17" value="Registrado" style="ellipse;whiteSpace=wrap;html=1;aspect=fixed;" vertex="1" parent="WIyWlLk6GJQsqaUBKTNV-1">
          <mxGeometry x="430" y="390" width="60" height="60" as="geometry" />
        </mxCell>
        <mxCell id="XBX4nZGUdL0fPtYbBpFq-22" value="Aprobar" style="edgeStyle=orthogonalEdgeStyle;rounded=0;orthogonalLoop=1;jettySize=auto;html=1;" edge="1" parent="WIyWlLk6GJQsqaUBKTNV-1" source="XBX4nZGUdL0fPtYbBpFq-19" target="XBX4nZGUdL0fPtYbBpFq-21">
          <mxGeometry relative="1" as="geometry" />
        </mxCell>
        <mxCell id="XBX4nZGUdL0fPtYbBpFq-25" value="Rechazar" style="edgeStyle=orthogonalEdgeStyle;rounded=0;orthogonalLoop=1;jettySize=auto;html=1;curved=1;exitX=0.5;exitY=1;exitDx=0;exitDy=0;entryX=1;entryY=0.5;entryDx=0;entryDy=0;" edge="1" parent="WIyWlLk6GJQsqaUBKTNV-1" source="XBX4nZGUdL0fPtYbBpFq-19" target="XBX4nZGUdL0fPtYbBpFq-24">
          <mxGeometry relative="1" as="geometry" />
        </mxCell>
        <mxCell id="XBX4nZGUdL0fPtYbBpFq-19" value="En&lt;br&gt;Proceso" style="ellipse;whiteSpace=wrap;html=1;aspect=fixed;" vertex="1" parent="WIyWlLk6GJQsqaUBKTNV-1">
          <mxGeometry x="587" y="390" width="60" height="60" as="geometry" />
        </mxCell>
        <mxCell id="XBX4nZGUdL0fPtYbBpFq-35" value="Crear" style="edgeStyle=orthogonalEdgeStyle;rounded=0;orthogonalLoop=1;jettySize=auto;html=1;" edge="1" parent="WIyWlLk6GJQsqaUBKTNV-1" source="XBX4nZGUdL0fPtYbBpFq-21" target="XBX4nZGUdL0fPtYbBpFq-34">
          <mxGeometry relative="1" as="geometry" />
        </mxCell>
        <mxCell id="XBX4nZGUdL0fPtYbBpFq-21" value="Validado" style="ellipse;whiteSpace=wrap;html=1;aspect=fixed;" vertex="1" parent="WIyWlLk6GJQsqaUBKTNV-1">
          <mxGeometry x="740" y="390" width="60" height="60" as="geometry" />
        </mxCell>
        <mxCell id="XBX4nZGUdL0fPtYbBpFq-27" value="Rechazar" style="edgeStyle=orthogonalEdgeStyle;rounded=0;orthogonalLoop=1;jettySize=auto;html=1;" edge="1" parent="WIyWlLk6GJQsqaUBKTNV-1" source="XBX4nZGUdL0fPtYbBpFq-24" target="XBX4nZGUdL0fPtYbBpFq-26">
          <mxGeometry relative="1" as="geometry" />
        </mxCell>
        <mxCell id="XBX4nZGUdL0fPtYbBpFq-28" value="Reutilizar" style="edgeStyle=orthogonalEdgeStyle;rounded=0;orthogonalLoop=1;jettySize=auto;html=1;entryX=0.5;entryY=1;entryDx=0;entryDy=0;" edge="1" parent="WIyWlLk6GJQsqaUBKTNV-1" source="XBX4nZGUdL0fPtYbBpFq-24" target="XBX4nZGUdL0fPtYbBpFq-17">
          <mxGeometry relative="1" as="geometry" />
        </mxCell>
        <mxCell id="XBX4nZGUdL0fPtYbBpFq-24" value="Retornado" style="ellipse;whiteSpace=wrap;html=1;aspect=fixed;" vertex="1" parent="WIyWlLk6GJQsqaUBKTNV-1">
          <mxGeometry x="430" y="500" width="60" height="60" as="geometry" />
        </mxCell>
        <mxCell id="XBX4nZGUdL0fPtYbBpFq-26" value="Rechazado" style="ellipse;whiteSpace=wrap;html=1;aspect=fixed;fillColor=#f8cecc;strokeColor=#b85450;" vertex="1" parent="WIyWlLk6GJQsqaUBKTNV-1">
          <mxGeometry x="144" y="500" width="60" height="60" as="geometry" />
        </mxCell>
        <mxCell id="XBX4nZGUdL0fPtYbBpFq-33" value="" style="edgeStyle=orthogonalEdgeStyle;rounded=0;orthogonalLoop=1;jettySize=auto;html=1;" edge="1" parent="WIyWlLk6GJQsqaUBKTNV-1" source="XBX4nZGUdL0fPtYbBpFq-29" target="XBX4nZGUdL0fPtYbBpFq-32">
          <mxGeometry relative="1" as="geometry" />
        </mxCell>
        <mxCell id="XBX4nZGUdL0fPtYbBpFq-29" value="Crear Ficha (AS400)" style="whiteSpace=wrap;html=1;fillColor=#d5e8d4;strokeColor=#82b366;rounded=1;glass=0;strokeWidth=1;shadow=0;" vertex="1" parent="WIyWlLk6GJQsqaUBKTNV-1">
          <mxGeometry x="802" y="130" width="120" height="40" as="geometry" />
        </mxCell>
        <mxCell id="XBX4nZGUdL0fPtYbBpFq-42" value="" style="edgeStyle=orthogonalEdgeStyle;rounded=0;orthogonalLoop=1;jettySize=auto;html=1;" edge="1" parent="WIyWlLk6GJQsqaUBKTNV-1" source="XBX4nZGUdL0fPtYbBpFq-32" target="XBX4nZGUdL0fPtYbBpFq-41">
          <mxGeometry relative="1" as="geometry" />
        </mxCell>
        <mxCell id="XBX4nZGUdL0fPtYbBpFq-32" value="Crear OT" style="whiteSpace=wrap;html=1;fillColor=#d5e8d4;strokeColor=#82b366;rounded=1;glass=0;strokeWidth=1;shadow=0;" vertex="1" parent="WIyWlLk6GJQsqaUBKTNV-1">
          <mxGeometry x="1002" y="130" width="120" height="40" as="geometry" />
        </mxCell>
        <mxCell id="XBX4nZGUdL0fPtYbBpFq-37" value="Crear OT" style="edgeStyle=orthogonalEdgeStyle;rounded=0;orthogonalLoop=1;jettySize=auto;html=1;" edge="1" parent="WIyWlLk6GJQsqaUBKTNV-1" source="XBX4nZGUdL0fPtYbBpFq-34" target="XBX4nZGUdL0fPtYbBpFq-36">
          <mxGeometry relative="1" as="geometry" />
        </mxCell>
        <mxCell id="XBX4nZGUdL0fPtYbBpFq-34" value="Con Ficha" style="ellipse;whiteSpace=wrap;html=1;aspect=fixed;" vertex="1" parent="WIyWlLk6GJQsqaUBKTNV-1">
          <mxGeometry x="930" y="390" width="60" height="60" as="geometry" />
        </mxCell>
        <mxCell id="XBX4nZGUdL0fPtYbBpFq-36" value="Con OT" style="ellipse;whiteSpace=wrap;html=1;aspect=fixed;" vertex="1" parent="WIyWlLk6GJQsqaUBKTNV-1">
          <mxGeometry x="1128" y="390" width="60" height="60" as="geometry" />
        </mxCell>
        <mxCell id="XBX4nZGUdL0fPtYbBpFq-44" value="" style="edgeStyle=orthogonalEdgeStyle;rounded=0;orthogonalLoop=1;jettySize=auto;html=1;" edge="1" parent="WIyWlLk6GJQsqaUBKTNV-1" source="XBX4nZGUdL0fPtYbBpFq-41" target="XBX4nZGUdL0fPtYbBpFq-43">
          <mxGeometry relative="1" as="geometry" />
        </mxCell>
        <mxCell id="XBX4nZGUdL0fPtYbBpFq-41" value="Despacho de OT" style="whiteSpace=wrap;html=1;fillColor=#d5e8d4;strokeColor=#82b366;rounded=1;glass=0;strokeWidth=1;shadow=0;" vertex="1" parent="WIyWlLk6GJQsqaUBKTNV-1">
          <mxGeometry x="1202" y="130" width="120" height="40" as="geometry" />
        </mxCell>
        <mxCell id="XBX4nZGUdL0fPtYbBpFq-46" value="" style="edgeStyle=orthogonalEdgeStyle;rounded=0;orthogonalLoop=1;jettySize=auto;html=1;" edge="1" parent="WIyWlLk6GJQsqaUBKTNV-1" source="XBX4nZGUdL0fPtYbBpFq-43" target="XBX4nZGUdL0fPtYbBpFq-45">
          <mxGeometry relative="1" as="geometry" />
        </mxCell>
        <mxCell id="XBX4nZGUdL0fPtYbBpFq-43" value="Intalación" style="whiteSpace=wrap;html=1;fillColor=#d5e8d4;strokeColor=#82b366;rounded=1;glass=0;strokeWidth=1;shadow=0;" vertex="1" parent="WIyWlLk6GJQsqaUBKTNV-1">
          <mxGeometry x="1430" y="130" width="120" height="40" as="geometry" />
        </mxCell>
        <mxCell id="XBX4nZGUdL0fPtYbBpFq-52" value="No" style="edgeStyle=orthogonalEdgeStyle;rounded=0;orthogonalLoop=1;jettySize=auto;html=1;entryX=0;entryY=0.5;entryDx=0;entryDy=0;exitX=0.5;exitY=0;exitDx=0;exitDy=0;" edge="1" parent="WIyWlLk6GJQsqaUBKTNV-1" source="XBX4nZGUdL0fPtYbBpFq-45" target="XBX4nZGUdL0fPtYbBpFq-49">
          <mxGeometry relative="1" as="geometry" />
        </mxCell>
        <mxCell id="XBX4nZGUdL0fPtYbBpFq-55" value="Si" style="edgeStyle=orthogonalEdgeStyle;rounded=0;orthogonalLoop=1;jettySize=auto;html=1;exitX=0.5;exitY=1;exitDx=0;exitDy=0;" edge="1" parent="WIyWlLk6GJQsqaUBKTNV-1" source="XBX4nZGUdL0fPtYbBpFq-45" target="XBX4nZGUdL0fPtYbBpFq-54">
          <mxGeometry relative="1" as="geometry" />
        </mxCell>
        <mxCell id="XBX4nZGUdL0fPtYbBpFq-45" value="Instalado?" style="rhombus;whiteSpace=wrap;html=1;fillColor=#d5e8d4;strokeColor=#82b366;rounded=1;glass=0;strokeWidth=1;shadow=0;" vertex="1" parent="WIyWlLk6GJQsqaUBKTNV-1">
          <mxGeometry x="1622" y="110" width="80" height="80" as="geometry" />
        </mxCell>
        <mxCell id="XBX4nZGUdL0fPtYbBpFq-48" style="edgeStyle=orthogonalEdgeStyle;rounded=0;orthogonalLoop=1;jettySize=auto;html=1;entryX=0;entryY=0;entryDx=0;entryDy=0;fillColor=#ffcd28;gradientColor=#ffa500;strokeColor=#d79b00;" edge="1" parent="WIyWlLk6GJQsqaUBKTNV-1" source="XBX4nZGUdL0fPtYbBpFq-47" target="XBX4nZGUdL0fPtYbBpFq-32">
          <mxGeometry relative="1" as="geometry" />
        </mxCell>
        <mxCell id="XBX4nZGUdL0fPtYbBpFq-47" value="1" style="ellipse;whiteSpace=wrap;html=1;aspect=fixed;fillColor=#ffcd28;strokeColor=#d79b00;gradientColor=#ffa500;" vertex="1" parent="WIyWlLk6GJQsqaUBKTNV-1">
          <mxGeometry x="987" y="35" width="30" height="30" as="geometry" />
        </mxCell>
        <mxCell id="XBX4nZGUdL0fPtYbBpFq-49" value="Enviar a&amp;nbsp;&lt;br&gt;Devolución" style="whiteSpace=wrap;html=1;fillColor=#dae8fc;strokeColor=#6c8ebf;rounded=1;glass=0;strokeWidth=1;shadow=0;" vertex="1" parent="WIyWlLk6GJQsqaUBKTNV-1">
          <mxGeometry x="1790" y="70" width="120" height="40" as="geometry" />
        </mxCell>
        <mxCell id="XBX4nZGUdL0fPtYbBpFq-51" value="Replicar Pago AS400" style="whiteSpace=wrap;html=1;fillColor=#dae8fc;strokeColor=#6c8ebf;rounded=1;glass=0;strokeWidth=1;shadow=0;" vertex="1" parent="WIyWlLk6GJQsqaUBKTNV-1">
          <mxGeometry x="1970" y="270" width="120" height="40" as="geometry" />
        </mxCell>
        <mxCell id="XBX4nZGUdL0fPtYbBpFq-56" value="Si" style="edgeStyle=orthogonalEdgeStyle;rounded=0;orthogonalLoop=1;jettySize=auto;html=1;exitX=0.5;exitY=1;exitDx=0;exitDy=0;" edge="1" parent="WIyWlLk6GJQsqaUBKTNV-1" source="XBX4nZGUdL0fPtYbBpFq-54" target="XBX4nZGUdL0fPtYbBpFq-51">
          <mxGeometry relative="1" as="geometry" />
        </mxCell>
        <mxCell id="XBX4nZGUdL0fPtYbBpFq-57" value="No" style="edgeStyle=orthogonalEdgeStyle;rounded=0;orthogonalLoop=1;jettySize=auto;html=1;exitX=0.5;exitY=0;exitDx=0;exitDy=0;" edge="1" parent="WIyWlLk6GJQsqaUBKTNV-1" source="XBX4nZGUdL0fPtYbBpFq-54" target="XBX4nZGUdL0fPtYbBpFq-49">
          <mxGeometry relative="1" as="geometry" />
        </mxCell>
        <mxCell id="XBX4nZGUdL0fPtYbBpFq-54" value="Encontrado?" style="rhombus;whiteSpace=wrap;html=1;fillColor=#d5e8d4;strokeColor=#82b366;rounded=1;glass=0;strokeWidth=1;shadow=0;" vertex="1" parent="WIyWlLk6GJQsqaUBKTNV-1">
          <mxGeometry x="1810" y="190" width="80" height="80" as="geometry" />
        </mxCell>
      </root>
    </mxGraphModel>
  </diagram>
</mxfile>
